<svg xmlns="http://www.w3.org/2000/svg" viewBox="0 0 24 24">
    <path d="M12.874,19.959l5.324,3.127a1.319,1.319,0,0,0,1.9-1.393l-1.111-6.497a1.313,1.313,0,0,1,.368-.93L23.774,12.5a1.315,1.315,0,0,0-.72-2.251l-6.149-.9a1.309,1.309,0,0,1-.993-.72L12.874,2.04a1.311,1.311,0,0,0-2.477,0L8.154,8.129a1.309,1.309,0,0,1-.993.72l-6.149.9A1.315,1.315,0,0,0,.226,12.5l5.627,5.764a1.313,1.313,0,0,1,.368.93l-1.111,6.497a1.319,1.319,0,0,0,1.9,1.393l5.324-3.127A1.316,1.316,0,0,1,12.874,19.959Z" fill="#afc9ff" />
</svg>